<?xml version="1.0" encoding="iso-8859-1"?>
<!-- Generator: Adobe Illustrator 19.0.0, SVG Export Plug-In . SVG Version: 6.00 Build 0)  -->
<svg version="1.1" id="Capa_1" xmlns="http://www.w3.org/2000/svg" xmlns:xlink="http://www.w3.org/1999/xlink" x="0px" y="0px"
	 viewBox="0 0 511.998 511.998" style="enable-background:new 0 0 511.998 511.998;" xml:space="preserve">
<path style="fill:#E59770;" d="M325.965,254.646c-13.352-85.727-49.205-139.037-83.766-171.548
	c-43.773-41.176-112.076-41.181-155.854-0.01C51.779,115.595,15.92,168.901,2.557,254.626c0,0-25.157,120.191,82.336,183.039
	c49.068,28.689,109.642,28.693,158.714,0.01C351.107,374.84,325.965,254.646,325.965,254.646z"/>
<path style="fill:#DB7E56;" d="M243.608,437.679c-28.805,16.838-61.586,23.794-93.661,20.851
	c22.905-1.944,45.484-8.923,66.04-20.941c107.5-62.843,82.366-183.03,82.366-183.03c-13.358-85.734-49.213-139.043-83.77-171.552
	c-18.192-17.107-40.623-27.112-63.76-30.005c32.325-3.829,65.982,6.203,91.381,30.096c34.557,32.509,70.412,85.818,83.76,171.552
	C325.964,254.649,351.109,374.836,243.608,437.679z"/>
<path style="fill:#F9E8D4;" d="M509.444,255.249c-13.352-85.727-49.205-139.037-83.766-171.548
	c-43.773-41.176-112.076-41.181-155.854-0.01c-34.565,32.506-70.424,85.813-83.787,171.538c0,0-25.157,120.191,82.336,183.039
	c49.068,28.689,109.642,28.693,158.714,0.01C534.586,375.442,509.444,255.249,509.444,255.249z"/>
<path style="fill:#E8D0BA;" d="M427.086,438.282c-28.805,16.838-61.586,23.794-93.661,20.851
	c22.905-1.944,45.484-8.923,66.04-20.941c107.5-62.843,82.366-183.03,82.366-183.03c-13.358-85.734-49.213-139.043-83.77-171.552
	c-18.192-17.107-40.623-27.112-63.76-30.005c32.325-3.829,65.982,6.203,91.381,30.096c34.557,32.509,70.412,85.818,83.76,171.552
	C509.442,255.251,534.586,375.439,427.086,438.282z"/>
<circle style="fill:#FEC007;" cx="347.76" cy="316.959" r="83.53"/>
<path style="fill:#EFAD0A;" d="M431.295,316.968c-0.007,46.128-37.403,83.527-83.541,83.521
	c-21.21,0.003-40.572-7.901-55.297-20.936c9.392,3.666,19.617,5.667,30.305,5.671c46.128-0.004,83.524-37.392,83.531-83.521
	c-0.001-24.918-10.905-47.293-28.213-62.584C409.224,251.256,431.287,281.539,431.295,316.968z"/>
<g>
</g>
<g>
</g>
<g>
</g>
<g>
</g>
<g>
</g>
<g>
</g>
<g>
</g>
<g>
</g>
<g>
</g>
<g>
</g>
<g>
</g>
<g>
</g>
<g>
</g>
<g>
</g>
<g>
</g>
</svg>
